<svg width="866" height="139" viewBox="0 0 866 139" fill="none" xmlns="http://www.w3.org/2000/svg">
<path d="M94.6002 0.199997V55.2H25.0002V0.199997H0.200195V136H25.0002V75.6H94.6002V136H119.4V0.199997H94.6002Z" fill="#B4F230"/>
<path d="M183.247 138.4C213.047 138.4 234.447 117.2 234.447 84.4C234.447 51.4 213.047 30.2 183.047 30.2C153.047 30.2 131.647 51.4 131.647 84.6C131.647 117.4 153.047 138.4 183.247 138.4ZM183.047 118.8C166.447 118.8 155.447 105 155.447 84.6C155.447 63.6 166.247 49.8 183.047 49.8C199.647 49.8 210.447 63.6 210.447 84.4C210.447 105 199.647 118.8 183.047 118.8Z" fill="#B4F230"/>
<path d="M364.853 30.2C350.053 30.2 338.253 36.8 331.253 49C325.053 36.8 313.653 30.2 298.853 30.2C285.053 30.2 274.053 36 267.453 46.8V32.6H245.653V136H269.453V74.8C269.453 58.8 279.253 50.8 291.253 50.8C303.453 50.8 312.253 59 312.253 76.2V136H336.053V74.8C336.053 59.2 345.853 50.8 357.853 50.8C370.053 50.8 378.653 59 378.653 76.2V136H402.453V71.8C402.453 45.4 387.453 30.2 364.853 30.2Z" fill="#B4F230"/>
<path d="M463.313 30.2C433.713 30.2 412.913 51.8 412.913 85.2C412.913 116.6 431.713 138.4 464.313 138.4C490.113 138.4 506.113 124 510.513 105.8H486.513C483.713 114.2 476.513 119.8 464.113 119.8C449.313 119.8 438.513 111.2 436.513 91.4H512.313C512.313 91.4 512.513 89 512.513 85.6C512.913 52.2 495.113 30.2 463.313 30.2ZM437.113 75.2C439.713 57.4 449.913 48.6 463.313 48.6C477.713 48.6 486.913 57.6 488.113 75.2H437.113Z" fill="#B4F230"/>
<path d="M541.308 20.9829H536.054C532.941 20.9829 530.8 23.12 530.8 26.2286V109.966C530.8 113.074 532.941 115.211 536.054 115.211H541.308V120.263C541.308 123.371 543.448 125.509 546.562 125.509H551.815V130.754C551.815 133.863 553.956 136 557.069 136H598.905C602.018 136 604.159 133.863 604.159 130.754V125.703H609.413C612.526 125.703 614.667 123.566 614.667 120.457V115.211H624.98V136H645.8V120.263C645.8 117.154 643.66 115.017 640.546 115.017H635.487V104.526H640.546C643.66 104.526 645.8 102.389 645.8 99.28V78.4914C645.8 75.3829 643.66 73.2457 640.546 73.2457H635.293V68C635.293 64.8914 633.152 62.7543 630.039 62.7543H593.457V83.7371H624.98V94.2286H609.413C606.299 94.2286 604.159 96.3657 604.159 99.4743V104.526H598.905C595.792 104.526 593.651 106.663 593.651 109.771V115.017H562.323V109.771C562.323 106.663 560.183 104.526 557.069 104.526H551.815V31.4743H557.069C560.183 31.4743 562.323 29.3371 562.323 26.2286V20.9829H614.667V26.2286C614.667 29.3371 616.807 31.4743 619.92 31.4743H624.98V52.2629H645.8V26.2286C645.8 23.12 643.66 20.9829 640.546 20.9829H635.293V15.7371C635.293 12.6286 633.152 10.4914 630.039 10.4914H624.98V5.24572C624.98 2.13715 622.839 0 619.726 0H557.069C553.956 0 551.815 2.13715 551.815 5.24572V10.4914H546.562C543.448 10.4914 541.308 12.6286 541.308 15.7371V20.9829Z" fill="#B4F230"/>
<path d="M672.165 52.684V63.1227H666.983C663.912 63.1227 661.8 65.2491 661.8 68.342V136H682.531V62.9294H687.714C690.785 62.9294 692.896 60.803 692.896 57.71V52.4907H703.453V62.9294H723.8V47.4647C723.8 44.3718 721.689 42.2454 718.617 42.2454H713.627V37.2193C713.627 34.1264 711.515 32 708.444 32H698.079C695.008 32 692.896 34.1264 692.896 37.2193V42.2454H682.531V32H661.8V47.4647C661.8 50.5576 663.912 52.684 666.983 52.684H672.165Z" fill="#B4F230"/>
<path d="M734.8 20.9829H755.8V0H734.8V20.9829ZM734.8 136H755.8V31.28H734.8V136Z" fill="#B4F230"/>
<path d="M844.825 62.7543V104.526H839.775C836.668 104.526 834.532 106.663 834.532 109.771V115.017H803.069V109.771C803.069 106.663 800.932 104.526 797.825 104.526H792.581V62.7543H797.825C800.932 62.7543 803.069 60.6171 803.069 57.5086V52.2629H834.532V57.5086C834.532 60.6171 836.668 62.7543 839.775 62.7543H844.825ZM782.094 115.017V120.263C782.094 123.371 784.23 125.509 787.337 125.509H792.581V130.754C792.581 133.863 794.718 136 797.825 136H829.288C832.395 136 834.532 133.863 834.532 130.754V125.509H844.825V136H865.8V120.263C865.8 117.154 863.664 115.017 860.556 115.017H855.313V104.526H860.556C863.664 104.526 865.8 102.389 865.8 99.28V78.4914C865.8 75.3829 863.664 73.2457 860.556 73.2457H855.313V62.7543H860.556C863.664 62.7543 865.8 60.6171 865.8 57.5086V0H844.825V41.7714H834.532V36.72C834.532 33.6114 832.395 31.4743 829.288 31.4743H797.825C794.718 31.4743 792.581 33.6114 792.581 36.72V41.7714H787.337C784.23 41.7714 782.094 43.9086 782.094 47.0171V52.2629H777.044C773.937 52.2629 771.8 54.4 771.8 57.5086V109.771C771.8 112.88 773.937 115.017 777.044 115.017H782.094Z" fill="#B4F230"/>
</svg>
