<svg width="867" height="139" viewBox="0 0 867 139" fill="none" xmlns="http://www.w3.org/2000/svg">
<path d="M95.0001 0.199997V55.2H25.4001V0.199997H0.600098V136H25.4001V75.6H95.0001V136H119.8V0.199997H95.0001Z" fill="#22364F"/>
<path d="M183.647 138.4C213.447 138.4 234.847 117.2 234.847 84.4C234.847 51.4 213.447 30.2 183.447 30.2C153.447 30.2 132.047 51.4 132.047 84.6C132.047 117.4 153.447 138.4 183.647 138.4ZM183.447 118.8C166.847 118.8 155.847 105 155.847 84.6C155.847 63.6 166.647 49.8 183.447 49.8C200.047 49.8 210.847 63.6 210.847 84.4C210.847 105 200.047 118.8 183.447 118.8Z" fill="#22364F"/>
<path d="M365.253 30.2C350.453 30.2 338.653 36.8 331.653 49C325.453 36.8 314.053 30.2 299.253 30.2C285.453 30.2 274.453 36 267.853 46.8V32.6H246.053V136H269.853V74.8C269.853 58.8 279.653 50.8 291.653 50.8C303.853 50.8 312.653 59 312.653 76.2V136H336.453V74.8C336.453 59.2 346.253 50.8 358.253 50.8C370.453 50.8 379.053 59 379.053 76.2V136H402.853V71.8C402.853 45.4 387.853 30.2 365.253 30.2Z" fill="#22364F"/>
<path d="M463.713 30.2C434.113 30.2 413.313 51.8 413.313 85.2C413.313 116.6 432.113 138.4 464.713 138.4C490.513 138.4 506.513 124 510.913 105.8H486.913C484.113 114.2 476.913 119.8 464.513 119.8C449.713 119.8 438.913 111.2 436.913 91.4H512.713C512.713 91.4 512.913 89 512.913 85.6C513.313 52.2 495.513 30.2 463.713 30.2ZM437.513 75.2C440.113 57.4 450.313 48.6 463.713 48.6C478.113 48.6 487.313 57.6 488.513 75.2H437.513Z" fill="#22364F"/>
<path d="M541.708 20.9829H536.454C533.34 20.9829 531.2 23.12 531.2 26.2286V109.966C531.2 113.074 533.34 115.211 536.454 115.211H541.708V120.263C541.708 123.371 543.848 125.509 546.961 125.509H552.215V130.754C552.215 133.863 554.356 136 557.469 136H599.305C602.418 136 604.559 133.863 604.559 130.754V125.703H609.813C612.926 125.703 615.066 123.566 615.066 120.457V115.211H625.379V136H646.2V120.263C646.2 117.154 644.06 115.017 640.946 115.017H635.887V104.526H640.946C644.06 104.526 646.2 102.389 646.2 99.28V78.4914C646.2 75.3829 644.06 73.2457 640.946 73.2457H635.692V68C635.692 64.8914 633.552 62.7543 630.439 62.7543H593.857V83.7371H625.379V94.2286H609.813C606.699 94.2286 604.559 96.3657 604.559 99.4743V104.526H599.305C596.192 104.526 594.051 106.663 594.051 109.771V115.017H562.723V109.771C562.723 106.663 560.582 104.526 557.469 104.526H552.215V31.4743H557.469C560.582 31.4743 562.723 29.3371 562.723 26.2286V20.9829H615.066V26.2286C615.066 29.3371 617.207 31.4743 620.32 31.4743H625.379V52.2629H646.2V26.2286C646.2 23.12 644.06 20.9829 640.946 20.9829H635.692V15.7371C635.692 12.6286 633.552 10.4914 630.439 10.4914H625.379V5.24572C625.379 2.13715 623.239 0 620.126 0H557.469C554.356 0 552.215 2.13715 552.215 5.24572V10.4914H546.961C543.848 10.4914 541.708 12.6286 541.708 15.7371V20.9829Z" fill="#22364F"/>
<path d="M672.565 52.684V63.1227H667.383C664.312 63.1227 662.2 65.2491 662.2 68.342V136H682.931V62.9294H688.113C691.185 62.9294 693.296 60.803 693.296 57.71V52.4907H703.853V62.9294H724.2V47.4647C724.2 44.3718 722.089 42.2454 719.017 42.2454H714.027V37.2193C714.027 34.1264 711.915 32 708.844 32H698.479C695.407 32 693.296 34.1264 693.296 37.2193V42.2454H682.931V32H662.2V47.4647C662.2 50.5576 664.312 52.684 667.383 52.684H672.565Z" fill="#22364F"/>
<path d="M735.2 20.9829H756.2V0H735.2V20.9829ZM735.2 136H756.2V31.28H735.2V136Z" fill="#22364F"/>
<path d="M845.225 62.7543V104.526H840.175C837.068 104.526 834.931 106.663 834.931 109.771V115.017H803.469V109.771C803.469 106.663 801.332 104.526 798.225 104.526H792.981V62.7543H798.225C801.332 62.7543 803.469 60.6171 803.469 57.5086V52.2629H834.931V57.5086C834.931 60.6171 837.068 62.7543 840.175 62.7543H845.225ZM782.493 115.017V120.263C782.493 123.371 784.63 125.509 787.737 125.509H792.981V130.754C792.981 133.863 795.117 136 798.225 136H829.688C832.795 136 834.931 133.863 834.931 130.754V125.509H845.225V136H866.2V120.263C866.2 117.154 864.064 115.017 860.956 115.017H855.712V104.526H860.956C864.064 104.526 866.2 102.389 866.2 99.28V78.4914C866.2 75.3829 864.064 73.2457 860.956 73.2457H855.712V62.7543H860.956C864.064 62.7543 866.2 60.6171 866.2 57.5086V0H845.225V41.7714H834.931V36.72C834.931 33.6114 832.795 31.4743 829.688 31.4743H798.225C795.117 31.4743 792.981 33.6114 792.981 36.72V41.7714H787.737C784.63 41.7714 782.493 43.9086 782.493 47.0171V52.2629H777.444C774.336 52.2629 772.2 54.4 772.2 57.5086V109.771C772.2 112.88 774.336 115.017 777.444 115.017H782.493Z" fill="#22364F"/>
</svg>
