<svg width="866" height="139" viewBox="0 0 866 139" fill="none" xmlns="http://www.w3.org/2000/svg">
<path d="M94.4 0.199997V55.2H24.8V0.199997H0V136H24.8V75.6H94.4V136H119.2V0.199997H94.4Z" fill="#090C15"/>
<path d="M183.047 138.4C212.847 138.4 234.247 117.2 234.247 84.4C234.247 51.4 212.847 30.2 182.847 30.2C152.847 30.2 131.447 51.4 131.447 84.6C131.447 117.4 152.847 138.4 183.047 138.4ZM182.847 118.8C166.247 118.8 155.247 105 155.247 84.6C155.247 63.6 166.047 49.8 182.847 49.8C199.447 49.8 210.247 63.6 210.247 84.4C210.247 105 199.447 118.8 182.847 118.8Z" fill="#090C15"/>
<path d="M364.653 30.2C349.853 30.2 338.053 36.8 331.053 49C324.853 36.8 313.453 30.2 298.653 30.2C284.853 30.2 273.853 36 267.253 46.8V32.6H245.453V136H269.253V74.8C269.253 58.8 279.053 50.8 291.053 50.8C303.253 50.8 312.053 59 312.053 76.2V136H335.853V74.8C335.853 59.2 345.653 50.8 357.653 50.8C369.853 50.8 378.453 59 378.453 76.2V136H402.253V71.8C402.253 45.4 387.253 30.2 364.653 30.2Z" fill="#090C15"/>
<path d="M463.113 30.2C433.513 30.2 412.712 51.8 412.712 85.2C412.712 116.6 431.513 138.4 464.113 138.4C489.913 138.4 505.913 124 510.313 105.8H486.312C483.513 114.2 476.313 119.8 463.913 119.8C449.113 119.8 438.312 111.2 436.312 91.4H512.112C512.112 91.4 512.312 89 512.312 85.6C512.713 52.2 494.913 30.2 463.113 30.2ZM436.913 75.2C439.513 57.4 449.713 48.6 463.113 48.6C477.513 48.6 486.713 57.6 487.913 75.2H436.913Z" fill="#090C15"/>
<path d="M541.108 20.9829H535.854C532.74 20.9829 530.6 23.12 530.6 26.2286V109.966C530.6 113.074 532.74 115.211 535.854 115.211H541.108V120.263C541.108 123.371 543.248 125.509 546.361 125.509H551.615V130.754C551.615 133.863 553.756 136 556.869 136H598.705C601.818 136 603.959 133.863 603.959 130.754V125.703H609.213C612.326 125.703 614.466 123.566 614.466 120.457V115.211H624.779V136H645.6V120.263C645.6 117.154 643.46 115.017 640.346 115.017H635.287V104.526H640.346C643.46 104.526 645.6 102.389 645.6 99.28V78.4914C645.6 75.3829 643.46 73.2457 640.346 73.2457H635.092V68C635.092 64.8914 632.952 62.7543 629.839 62.7543H593.256V83.7371H624.779V94.2286H609.213C606.099 94.2286 603.959 96.3657 603.959 99.4743V104.526H598.705C595.592 104.526 593.451 106.663 593.451 109.771V115.017H562.123V109.771C562.123 106.663 559.982 104.526 556.869 104.526H551.615V31.4743H556.869C559.982 31.4743 562.123 29.3371 562.123 26.2286V20.9829H614.466V26.2286C614.466 29.3371 616.607 31.4743 619.72 31.4743H624.779V52.2629H645.6V26.2286C645.6 23.12 643.46 20.9829 640.346 20.9829H635.092V15.7371C635.092 12.6286 632.952 10.4914 629.839 10.4914H624.779V5.24572C624.779 2.13715 622.639 0 619.526 0H556.869C553.756 0 551.615 2.13715 551.615 5.24572V10.4914H546.361C543.248 10.4914 541.108 12.6286 541.108 15.7371V20.9829Z" fill="#090C15"/>
<path d="M671.965 52.684V63.1227H666.783C663.711 63.1227 661.6 65.2491 661.6 68.342V136H682.331V62.9294H687.513C690.585 62.9294 692.696 60.803 692.696 57.71V52.4907H703.253V62.9294H723.6V47.4647C723.6 44.3718 721.489 42.2454 718.417 42.2454H713.427V37.2193C713.427 34.1264 711.315 32 708.244 32H697.879C694.807 32 692.696 34.1264 692.696 37.2193V42.2454H682.331V32H661.6V47.4647C661.6 50.5576 663.711 52.684 666.783 52.684H671.965Z" fill="#090C15"/>
<path d="M734.6 20.9829H755.6V0H734.6V20.9829ZM734.6 136H755.6V31.28H734.6V136Z" fill="#090C15"/>
<path d="M844.625 62.7543V104.526H839.575C836.468 104.526 834.331 106.663 834.331 109.771V115.017H802.869V109.771C802.869 106.663 800.732 104.526 797.625 104.526H792.381V62.7543H797.625C800.732 62.7543 802.869 60.6171 802.869 57.5086V52.2629H834.331V57.5086C834.331 60.6171 836.468 62.7543 839.575 62.7543H844.625ZM781.893 115.017V120.263C781.893 123.371 784.03 125.509 787.137 125.509H792.381V130.754C792.381 133.863 794.517 136 797.625 136H829.088C832.195 136 834.331 133.863 834.331 130.754V125.509H844.625V136H865.6V120.263C865.6 117.154 863.464 115.017 860.356 115.017H855.112V104.526H860.356C863.464 104.526 865.6 102.389 865.6 99.28V78.4914C865.6 75.3829 863.464 73.2457 860.356 73.2457H855.112V62.7543H860.356C863.464 62.7543 865.6 60.6171 865.6 57.5086V0H844.625V41.7714H834.331V36.72C834.331 33.6114 832.195 31.4743 829.088 31.4743H797.625C794.517 31.4743 792.381 33.6114 792.381 36.72V41.7714H787.137C784.03 41.7714 781.893 43.9086 781.893 47.0171V52.2629H776.844C773.736 52.2629 771.6 54.4 771.6 57.5086V109.771C771.6 112.88 773.736 115.017 776.844 115.017H781.893Z" fill="#090C15"/>
</svg>
