<svg width="867" height="139" viewBox="0 0 867 139" fill="none" xmlns="http://www.w3.org/2000/svg">
<path d="M95.1998 0.199997V55.2H25.5998V0.199997H0.799805V136H25.5998V75.6H95.1998V136H120V0.199997H95.1998Z" fill="#2E2724"/>
<path d="M183.847 138.4C213.647 138.4 235.047 117.2 235.047 84.4C235.047 51.4 213.647 30.2 183.647 30.2C153.647 30.2 132.247 51.4 132.247 84.6C132.247 117.4 153.647 138.4 183.847 138.4ZM183.647 118.8C167.047 118.8 156.047 105 156.047 84.6C156.047 63.6 166.847 49.8 183.647 49.8C200.247 49.8 211.047 63.6 211.047 84.4C211.047 105 200.247 118.8 183.647 118.8Z" fill="#2E2724"/>
<path d="M365.453 30.2C350.653 30.2 338.853 36.8 331.853 49C325.653 36.8 314.253 30.2 299.453 30.2C285.653 30.2 274.653 36 268.053 46.8V32.6H246.253V136H270.053V74.8C270.053 58.8 279.853 50.8 291.853 50.8C304.053 50.8 312.853 59 312.853 76.2V136H336.653V74.8C336.653 59.2 346.453 50.8 358.453 50.8C370.653 50.8 379.253 59 379.253 76.2V136H403.053V71.8C403.053 45.4 388.053 30.2 365.453 30.2Z" fill="#2E2724"/>
<path d="M463.912 30.2C434.312 30.2 413.512 51.8 413.512 85.2C413.512 116.6 432.312 138.4 464.912 138.4C490.712 138.4 506.712 124 511.112 105.8H487.112C484.312 114.2 477.112 119.8 464.712 119.8C449.912 119.8 439.112 111.2 437.112 91.4H512.912C512.912 91.4 513.112 89 513.112 85.6C513.512 52.2 495.712 30.2 463.912 30.2ZM437.712 75.2C440.312 57.4 450.512 48.6 463.912 48.6C478.312 48.6 487.512 57.6 488.712 75.2H437.712Z" fill="#2E2724"/>
<path d="M541.907 20.9829H536.654C533.54 20.9829 531.4 23.12 531.4 26.2286V109.966C531.4 113.074 533.54 115.211 536.654 115.211H541.907V120.263C541.907 123.371 544.048 125.509 547.161 125.509H552.415V130.754C552.415 133.863 554.555 136 557.669 136H599.505C602.618 136 604.758 133.863 604.758 130.754V125.703H610.012C613.126 125.703 615.266 123.566 615.266 120.457V115.211H625.579V136H646.4V120.263C646.4 117.154 644.259 115.017 641.146 115.017H636.087V104.526H641.146C644.259 104.526 646.4 102.389 646.4 99.28V78.4914C646.4 75.3829 644.259 73.2457 641.146 73.2457H635.892V68C635.892 64.8914 633.752 62.7543 630.638 62.7543H594.056V83.7371H625.579V94.2286H610.012C606.899 94.2286 604.758 96.3657 604.758 99.4743V104.526H599.505C596.391 104.526 594.251 106.663 594.251 109.771V115.017H562.923V109.771C562.923 106.663 560.782 104.526 557.669 104.526H552.415V31.4743H557.669C560.782 31.4743 562.923 29.3371 562.923 26.2286V20.9829H615.266V26.2286C615.266 29.3371 617.407 31.4743 620.52 31.4743H625.579V52.2629H646.4V26.2286C646.4 23.12 644.259 20.9829 641.146 20.9829H635.892V15.7371C635.892 12.6286 633.752 10.4914 630.638 10.4914H625.579V5.24572C625.579 2.13715 623.439 0 620.325 0H557.669C554.555 0 552.415 2.13715 552.415 5.24572V10.4914H547.161C544.048 10.4914 541.907 12.6286 541.907 15.7371V20.9829Z" fill="#2E2724"/>
<path d="M672.765 52.684V63.1227H667.582C664.511 63.1227 662.4 65.2491 662.4 68.342V136H683.13V62.9294H688.313C691.384 62.9294 693.496 60.803 693.496 57.71V52.4907H704.053V62.9294H724.4V47.4647C724.4 44.3718 722.288 42.2454 719.217 42.2454H714.226V37.2193C714.226 34.1264 712.115 32 709.044 32H698.678C695.607 32 693.496 34.1264 693.496 37.2193V42.2454H683.13V32H662.4V47.4647C662.4 50.5576 664.511 52.684 667.582 52.684H672.765Z" fill="#2E2724"/>
<path d="M735.4 20.9829H756.4V0H735.4V20.9829ZM735.4 136H756.4V31.28H735.4V136Z" fill="#2E2724"/>
<path d="M845.425 62.7543V104.526H840.375C837.268 104.526 835.131 106.663 835.131 109.771V115.017H803.668V109.771C803.668 106.663 801.532 104.526 798.425 104.526H793.181V62.7543H798.425C801.532 62.7543 803.668 60.6171 803.668 57.5086V52.2629H835.131V57.5086C835.131 60.6171 837.268 62.7543 840.375 62.7543H845.425ZM782.693 115.017V120.263C782.693 123.371 784.83 125.509 787.937 125.509H793.181V130.754C793.181 133.863 795.317 136 798.425 136H829.887C832.995 136 835.131 133.863 835.131 130.754V125.509H845.425V136H866.4V120.263C866.4 117.154 864.263 115.017 861.156 115.017H855.912V104.526H861.156C864.263 104.526 866.4 102.389 866.4 99.28V78.4914C866.4 75.3829 864.263 73.2457 861.156 73.2457H855.912V62.7543H861.156C864.263 62.7543 866.4 60.6171 866.4 57.5086V0H845.425V41.7714H835.131V36.72C835.131 33.6114 832.995 31.4743 829.887 31.4743H798.425C795.317 31.4743 793.181 33.6114 793.181 36.72V41.7714H787.937C784.83 41.7714 782.693 43.9086 782.693 47.0171V52.2629H777.644C774.536 52.2629 772.4 54.4 772.4 57.5086V109.771C772.4 112.88 774.536 115.017 777.644 115.017H782.693Z" fill="#2E2724"/>
</svg>
